<!-- Generated by IcoMoon.io -->
<!-- <svg version="1.1" xmlns="http://www.w3.org/2000/svg" width="32" height="32" viewBox="0 0 32 32">
<title>camera</title>
<path d="M22.688 14l5.313-5.313v14.625l-5.313-5.313v4.688c0 0.75-0.625 1.313-1.375 1.313h-16c-0.75 0-1.313-0.563-1.313-1.313v-13.375c0-0.75 0.563-1.313 1.313-1.313h16c0.75 0 1.375 0.563 1.375 1.313v4.688z"></path>
</svg>
 -->
<!-- Generator: Adobe Illustrator 25.0.0, SVG Export Plug-In . SVG Version: 6.00 Build 0)  -->
<svg version="1.1" id="Ebene_1" xmlns="http://www.w3.org/2000/svg" xmlns:xlink="http://www.w3.org/1999/xlink" x="0px" y="0px"
	height="24" width="24" viewBox="8 8 24 24" xml:space="preserve">
<title>camera</title>
<style type="text/css">
	.st0{fill:#FFFFFF;}
	.st1{fill-rule:evenodd;clip-rule:evenodd;fill:#FFFFFF;}
</style>
<g>
	<defs>
		<rect id="SVGID_1_" x="-1027.35" y="-1175.05" width="1680" height="1302"/>
	</defs>
	<clipPath id="SVGID_2_">
		<use xlink:href="#SVGID_1_"  style="overflow:visible;"/>
	</clipPath>
</g>
<g>
	<defs>
		<rect id="SVGID_3_" x="-1027.35" y="-1175.05" width="1680" height="1302"/>
	</defs>
	<clipPath id="SVGID_4_">
		<use xlink:href="#SVGID_3_"  style="overflow:visible;"/>
	</clipPath>
</g>
<g>
	<defs>
		<rect id="SVGID_5_" x="-1159.78" y="-684.86" width="1680" height="1302"/>
	</defs>
	<clipPath id="SVGID_6_">
		<use xlink:href="#SVGID_5_"  style="overflow:visible;"/>
	</clipPath>
</g>
<path class="st0" d="M30.1,14.51c-0.19-0.11-0.43-0.11-0.63,0l-4.9,2.87v-1.31c0-1-0.81-1.81-1.82-1.81h-11
	c-1,0-1.82,0.81-1.82,1.81v8.61c0,1,0.81,1.81,1.82,1.81h11c1,0,1.82-0.81,1.82-1.81v-1.14l4.9,2.87c0.1,0.06,0.21,0.09,0.32,0.09
	c0.11,0,0.21-0.03,0.31-0.08c0.19-0.11,0.31-0.32,0.31-0.54V15.05C30.42,14.83,30.3,14.62,30.1,14.51z M23.33,24.68
	c0,0.31-0.25,0.56-0.57,0.56h-11c-0.31,0-0.57-0.25-0.57-0.56v-8.61c0-0.31,0.25-0.56,0.57-0.56h11c0.31,0,0.57,0.25,0.57,0.56
	V24.68z M29.17,24.78l-4.59-2.68v-3.27l4.59-2.69V24.78z"/>
</svg>