<!-- Generated by IcoMoon.io -->
<!-- <svg version="1.1" xmlns="http://www.w3.org/2000/svg" width="32" height="32" viewBox="0 0 32 32">
<title>camera-disabled</title>
<path d="M4.375 2.688l23.625 23.625-1.688 1.688-4.25-4.25c-0.188 0.125-0.5 0.25-0.75 0.25h-16c-0.75 0-1.313-0.563-1.313-1.313v-13.375c0-0.75 0.563-1.313 1.313-1.313h1l-3.625-3.625zM28 8.688v14.25l-14.938-14.938h8.25c0.75 0 1.375 0.563 1.375 1.313v4.688z"></path>
</svg>
 -->


<!-- Generator: Adobe Illustrator 25.0.0, SVG Export Plug-In . SVG Version: 6.00 Build 0)  -->
<svg version="1.1" id="Ebene_1" xmlns="http://www.w3.org/2000/svg" xmlns:xlink="http://www.w3.org/1999/xlink" x="0px" y="0px"
	 height="24" width="24" viewBox="8 8 24 24" style="enable-background:new 0 0 40 40;" xml:space="preserve">
<title>camera-disabled</title>
<style type="text/css">
	.st0{fill:#FFFFFF;}
	.st1{fill-rule:evenodd;clip-rule:evenodd;fill:#FFFFFF;}
</style>
<g>
	<defs>
		<rect id="SVGID_1_" x="-980.79" y="-1175.05" width="1680" height="1302"/>
	</defs>
	<clipPath id="SVGID_2_">
		<use xlink:href="#SVGID_1_"  style="overflow:visible;"/>
	</clipPath>
</g>
<g>
	<defs>
		<rect id="SVGID_3_" x="-980.79" y="-1175.05" width="1680" height="1302"/>
	</defs>
	<clipPath id="SVGID_4_">
		<use xlink:href="#SVGID_3_"  style="overflow:visible;"/>
	</clipPath>
</g>
<g>
	<defs>
		<rect id="SVGID_5_" x="-1113.22" y="-684.86" width="1680" height="1302"/>
	</defs>
	<clipPath id="SVGID_6_">
		<use xlink:href="#SVGID_5_"  style="overflow:visible;"/>
	</clipPath>
</g>
<g>
	<path class="st1" d="M11.76,14.31c-1,0-1.82,0.81-1.82,1.82v8.61c0,1,0.81,1.82,1.82,1.82h7.44l-7.14-12.24H11.76z"/>
	<path class="st1" d="M30.1,14.56c-0.19-0.11-0.43-0.11-0.63,0l-4.9,2.87v-1.31c0-1-0.81-1.82-1.82-1.82h-7.25l7.14,12.24h0.12
		c1,0,1.82-0.81,1.82-1.82V23.6l4.9,2.87c0.1,0.06,0.21,0.09,0.32,0.09c0.11,0,0.21-0.03,0.31-0.08c0.19-0.11,0.31-0.32,0.31-0.54
		V15.1C30.42,14.88,30.3,14.67,30.1,14.56z"/>
	<rect x="16.64" y="10.7" transform="matrix(0.866 -0.5 0.5 0.866 -7.7736 11.2937)" class="st1" width="1.09" height="18.9"/>
</g>
</svg>
