<!-- <svg width="22" height="22" viewBox="0 0 22 22" fill="none" xmlns="http://www.w3.org/2000/svg">
<path fill-rule="evenodd" clip-rule="evenodd" d="M6.84074 5.49992H6.81762L3.42398 2.10629C3.06002 1.74232 2.47001 1.74223 2.10617 2.10608C1.74232 2.46992 1.74241 3.05993 2.10638 3.42389L4.1824 5.49992H3.66668C2.65415 5.49992 1.83334 6.32073 1.83334 7.33325V14.6666C1.83334 15.6791 2.65415 16.4999 3.66668 16.4999H13.75C14.154 16.4999 14.5274 16.3693 14.8304 16.1479L18.576 19.8936C18.94 20.2575 19.53 20.2576 19.8939 19.8938C20.2577 19.5299 20.2576 18.9399 19.8936 18.5759L15.5833 14.2656V14.2425L13.75 12.4092V12.4323L8.65095 7.33325H8.67407L6.84074 5.49992ZM13.75 9.77398V9.16659V7.33325H11.3093L9.47595 5.49992H13.75C14.7625 5.49992 15.5833 6.32073 15.5833 7.33325V8.11897L18.7952 6.28361C19.2348 6.03243 19.7947 6.18515 20.0459 6.62471C20.125 6.76321 20.1667 6.91998 20.1667 7.0795V14.9203C20.1667 15.2643 19.9772 15.5641 19.6969 15.7209L15.9614 11.9853L18.3333 13.3408V8.65908L15.5833 10.2305V11.6073L13.75 9.77398ZM3.66668 7.33325H6.01574L13.3491 14.6666H3.66668V7.33325Z" />
</svg>
 -->

<?xml version="1.0" encoding="UTF-8"?>
<svg width="45px" height="45px" viewBox="0 0 45 45" version="1.1" xmlns="http://www.w3.org/2000/svg" xmlns:xlink="http://www.w3.org/1999/xlink">
    <title>Group</title>
    <defs>
        <filter id="filter-1">
            <feColorMatrix in="SourceGraphic" type="matrix" values="0 0 0 0 0.000000 0 0 0 0 0.000000 0 0 0 0 0.000000 0 0 0 1.000000 0"></feColorMatrix>
        </filter>
    </defs>
    <g id="Desktop-Layouts" stroke="none" stroke-width="1" fill="none" fill-rule="evenodd">
        <g id="dCLX_mytraining_LOT_one-speaker-(Userview)-NEW-Copy" transform="translate(-909.000000, -84.000000)">
            <g id="Nav-Bar" transform="translate(55.000000, 71.000000)">
                <g id="controls" transform="translate(854.000000, 11.000000)">
                    <g id="steuerung" transform="translate(0.000000, 1.000000)">
                        <g id="Group" transform="translate(0.000000, 1.000000)">
                            <g id="video-ico">
                                <circle id="Oval" fill="#FFFFFF" cx="22.5" cy="22.5" r="22.5"></circle>
                                <g id="video-on-copy" transform="translate(13.000000, 17.000000)" filter="url(#filter-1)">
                                    <g id="Group-3" stroke="#000000">
                                        <rect id="Rectangle" x="-1.02774931e-13" y="-8.9015215e-14" width="13.3834821" height="10.9918519" rx="1.19"></rect>
                                        <polyline id="Path" stroke-linecap="round" stroke-linejoin="round" points="13.4075893 7.59 19.2214286 10.9918519 19.2214286 0.171111111 13.3834821 3.58925926"></polyline>
                                    </g>
                                </g>
                            </g>
                            <line x1="11.5" y1="30.5" x2="28.5" y2="14.5" id="Line" stroke="#000000" stroke-linecap="round"></line>
                        </g>
                    </g>
                </g>
            </g>
        </g>
    </g>
</svg>