<!-- Generated by IcoMoon.io -->
<!-- <svg version="1.1" xmlns="http://www.w3.org/2000/svg" width="32" height="32" viewBox="0 0 32 32">
<title>menu-up</title>
<path d="M16 10.688l8 8-1.875 1.875-6.125-6.125-6.125 6.125-1.875-1.875z"></path>
</svg>
 -->

 <?xml version="1.0" encoding="UTF-8"?>
<svg width="30px" height="40px" viewBox="0 0 30 40" version="1.1" xmlns="http://www.w3.org/2000/svg" xmlns:xlink="http://www.w3.org/1999/xlink">
    <title>Group 2</title>
    <g id="Desktop-Layouts" stroke="none" stroke-width="1" fill="none" fill-rule="evenodd">
        <g id="dCLX_mytraining_LOT-(Trainerview)-NEW" transform="translate(-1084.000000, -3009.000000)">
            <g id="Group-2" transform="translate(1084.000000, 3009.000000)">
                <path d="M12,0 L30,0 L30,0 L30,40 L12,40 C5.372583,40 8.11624501e-16,34.627417 0,28 L0,12 C-8.11624501e-16,5.372583 5.372583,1.21743675e-15 12,0 Z" id="Rectangle-Copy-14" fill="#000000"></path>
                <g id="Group" transform="translate(6.000000, 8.000000)" stroke="#FFFFFF">
                    <g id="groups-small" transform="translate(1.000000, 2.000000)">
                        <path d="M14,16.5 L21.5,16.5 L21.5,10.5 C21.4983526,9.94839907 21.0516009,9.5016474 20.5,9.5 L11,9.5" id="Shape"></path>
                        <rect id="Rectangle-path" x="12.5" y="0.5" width="6" height="6" rx="2"></rect>
                        <path d="M0.5,18.5 L0.5,12.5 C0.5,11.9477153 0.94771525,11.5 1.5,11.5 L11.5,11.5 C12.0518283,11.5011004 12.4988996,11.9481717 12.5,12.5 L12.5,18.5 L0.5,18.5 Z" id="Shape"></path>
                        <rect id="Rectangle-path" x="3.5" y="2.5" width="6" height="6" rx="2"></rect>
                    </g>
                </g>
            </g>
        </g>
    </g>
</svg>