<!-- Generated by IcoMoon.io -->
<!-- <svg version="1.1" xmlns="http://www.w3.org/2000/svg" width="32" height="32" viewBox="0 0 32 32">
<title>menu-down</title>
<path d="M22.125 11.438l1.875 1.875-8 8-8-8 1.875-1.875 6.125 6.125z"></path>
</svg> -->
<?xml version="1.0" encoding="UTF-8"?>
<svg width="30px" height="40px" viewBox="0 0 30 40" version="1.1" xmlns="http://www.w3.org/2000/svg" xmlns:xlink="http://www.w3.org/1999/xlink">
    <title>Group</title>
    <g id="Desktop-Layouts" stroke="none" stroke-width="1" fill="none" fill-rule="evenodd">
        <g id="dCLX_mytraining_LOT-(Trainerview)-NEW" transform="translate(-919.000000, -2345.000000)">
            <g id="Group" transform="translate(919.000000, 2345.000000)">
                <path d="M12,0 L30,0 L30,0 L30,40 L12,40 C5.372583,40 8.11624501e-16,34.627417 0,28 L0,12 C-8.11624501e-16,5.372583 5.372583,1.21743675e-15 12,0 Z" id="Rectangle" fill="#000000"></path>
                <g transform="translate(6.000000, 8.000000)" id="_Icon-Library/1---Content-Icons/Core-Library/back-small/white" stroke="#FFFFFF">
                    <g transform="translate(12.000000, 12.000000) scale(-1, 1) translate(-12.000000, -12.000000) ">
                        <g id="back-small" transform="translate(9.000000, 6.500000)">
                            <polyline id="Shape" points="5.985 10.939 0.5 5.496 5.98 0.061"></polyline>
                        </g>
                    </g>
                </g>
            </g>
        </g>
    </g>
</svg>