<!-- Generated by IcoMoon.io -->
<!-- <svg version="1.1" xmlns="http://www.w3.org/2000/svg" width="32" height="32" viewBox="0 0 32 32">
<title>mic-disabled</title>
<path d="M5.688 4l22.313 22.313-1.688 1.688-5.563-5.563c-1 0.625-2.25 1-3.438 1.188v4.375h-2.625v-4.375c-4.375-0.625-8-4.375-8-8.938h2.25c0 4 3.375 6.75 7.063 6.75 1.063 0 2.125-0.25 3.063-0.688l-2.188-2.188c-0.25 0.063-0.563 0.125-0.875 0.125-2.188 0-4-1.813-4-4v-1l-8-8zM20 14.875l-8-7.938v-0.25c0-2.188 1.813-4 4-4s4 1.813 4 4v8.188zM25.313 14.688c0 1.563-0.438 3.063-1.188 4.375l-1.625-1.688c0.375-0.813 0.563-1.688 0.563-2.688h2.25z"></path>
</svg>
 -->

<!-- Generator: Adobe Illustrator 25.0.0, SVG Export Plug-In . SVG Version: 6.00 Build 0)  -->
<?xml version="1.0" encoding="UTF-8"?>
<svg width="18px" height="23px" viewBox="0 0 18 23" version="1.1" xmlns="http://www.w3.org/2000/svg" xmlns:xlink="http://www.w3.org/1999/xlink">
    <title>Element 7 Copy</title>
    <g id="Desktop-Layouts" stroke="none" stroke-width="1" fill="none" fill-rule="evenodd">
        <g id="dCLX_mytraining_LOT_presentation-(Userview)-NEW" transform="translate(-977.000000, -95.000000)" fill="#FFFFFF" fill-rule="nonzero">
            <g id="Nav-Bar" transform="translate(55.000000, 71.000000)">
                <g id="controls" transform="translate(854.000000, 11.000000)">
                    <g id="steuerung" transform="translate(0.000000, 1.000000)">
                        <g id="micro-ico" transform="translate(54.000000, 0.000000)">
                            <g id="Element-7-Copy" transform="translate(14.000000, 12.000000)">
                                <path d="M8.87436,15.592338 C10.0462306,15.592338 11.1700973,15.126781 11.9986894,14.2980977 C12.8272815,13.4694145 13.2927149,12.3454966 13.292586,11.173626 L13.292586,5.42619 L17.22384,1.494936 C17.3221152,1.39674763 17.3605423,1.25358864 17.3246463,1.11938564 C17.2887503,0.985182636 17.1839845,0.880324255 17.0498133,0.844309632 C16.9156421,0.808295009 16.7724492,0.846595622 16.674174,0.944784 L13.290156,4.328802 C13.2186014,1.91386288 11.2205536,0.00422840914 8.80484942,0.0419696338 C6.38914526,0.0797108585 4.45172754,2.05083021 4.455648,4.466826 L4.455648,11.173626 C4.45512643,11.7444143 4.56538058,12.3098795 4.780296,12.838662 L3.088044,14.5314 C2.37159355,13.4251187 1.99109898,12.1349146 1.9926,10.816902 C1.9926,10.6021737 1.81852831,10.428102 1.6038,10.428102 C1.38907169,10.428102 1.215,10.6021737 1.215,10.816902 C1.21306103,12.3419179 1.67030427,13.8321922 2.5272,15.093702 L0.113724,17.505234 C-0.038062068,17.6571543 -0.03795327,17.9033569 0.113967007,18.055143 C0.265887284,18.2069291 0.512089924,18.2068203 0.663876,18.0549 L3.000564,15.718212 C4.36249743,17.3477183 6.34225089,18.3354814 8.463204,18.4437 L8.463204,22.075092 L4.981986,22.075092 C4.76725769,22.075092 4.593186,22.2491637 4.593186,22.463892 C4.593186,22.6786203 4.76725769,22.852692 4.981986,22.852692 L12.721536,22.852692 C12.9362643,22.852692 13.110336,22.6786203 13.110336,22.463892 C13.110336,22.2491637 12.9362643,22.075092 12.721536,22.075092 L9.240804,22.075092 L9.240804,18.4437 C13.271688,18.240552 16.488522,14.8959 16.488522,10.816902 C16.488522,10.6021737 16.3144503,10.428102 16.099722,10.428102 C15.8849937,10.428102 15.710922,10.6021737 15.710922,10.816902 C15.710922,14.598954 12.634056,17.67582 8.852004,17.67582 C6.79944018,17.6753653 4.85526011,16.754466 3.554604,15.166602 L5.158404,13.562802 C5.97056116,14.8280354 7.37089247,15.5928515 8.87436,15.592338 Z M12.5149862,11.173626 C12.515503,12.8210464 11.4093884,14.2633981 9.8182072,14.6901727 C8.22702598,15.1169472 6.54758513,14.4217159 5.723622,12.995154 L12.5149862,6.20379 L12.5149862,11.173626 Z M5.233248,11.173626 L5.233248,4.466826 C5.25629067,2.47243693 6.87959482,0.867779679 8.874117,0.867779679 C10.8686392,0.867779679 12.4919433,2.47243693 12.514986,4.466826 L12.514986,5.103 L5.38974,12.229218 C5.28603134,11.8869459 5.233248,11.531265 5.233248,11.173626 Z" id="Shape"></path>
                            </g>
                        </g>
                    </g>
                </g>
            </g>
        </g>
    </g>
</svg>