<!-- Generated by IcoMoon.io -->
<!-- <svg version="1.1" xmlns="http://www.w3.org/2000/svg" width="32" height="32" viewBox="0 0 32 32">
<title>mic-disabled</title>
<path d="M5.688 4l22.313 22.313-1.688 1.688-5.563-5.563c-1 0.625-2.25 1-3.438 1.188v4.375h-2.625v-4.375c-4.375-0.625-8-4.375-8-8.938h2.25c0 4 3.375 6.75 7.063 6.75 1.063 0 2.125-0.25 3.063-0.688l-2.188-2.188c-0.25 0.063-0.563 0.125-0.875 0.125-2.188 0-4-1.813-4-4v-1l-8-8zM20 14.875l-8-7.938v-0.25c0-2.188 1.813-4 4-4s4 1.813 4 4v8.188zM25.313 14.688c0 1.563-0.438 3.063-1.188 4.375l-1.625-1.688c0.375-0.813 0.563-1.688 0.563-2.688h2.25z"></path>
</svg>
 -->

<!-- Generator: Adobe Illustrator 25.0.0, SVG Export Plug-In . SVG Version: 6.00 Build 0)  -->
<svg version="1.1" id="Ebene_1" xmlns="http://www.w3.org/2000/svg" xmlns:xlink="http://www.w3.org/1999/xlink" x="0px" y="0px"
	 height="24" width="24" viewBox="8 8 24 24" xml:space="preserve">
<title>mic-disabled</title>
<style type="text/css">
	.st0{fill:#FFFFFF;}
	.st1{fill-rule:evenodd;clip-rule:evenodd;fill:#FFFFFF;}
</style>
<g>
	<defs>
		<rect id="SVGID_1_" x="-1074.24" y="-1175.05" width="1680" height="1302"/>
	</defs>
	<clipPath id="SVGID_2_">
		<use xlink:href="#SVGID_1_"  style="overflow:visible;"/>
	</clipPath>
</g>
<g>
	<defs>
		<rect id="SVGID_3_" x="-1074.24" y="-1175.05" width="1680" height="1302"/>
	</defs>
	<clipPath id="SVGID_4_">
		<use xlink:href="#SVGID_3_"  style="overflow:visible;"/>
	</clipPath>
</g>
<g>
	<defs>
		<rect id="SVGID_5_" x="-1206.67" y="-684.86" width="1680" height="1302"/>
	</defs>
	<clipPath id="SVGID_6_">
		<use xlink:href="#SVGID_5_"  style="overflow:visible;"/>
	</clipPath>
</g>
<g>
	<path class="st0" d="M22.5,21.63c0.07-0.27,0.11-0.55,0.13-0.83c0.01-0.17,0.01-0.34,0.01-0.51v-5.26c0-0.17-0.01-0.34-0.01-0.51
		c-0.01-0.28-0.05-0.56-0.13-0.83c-0.15-0.57-0.48-1.08-0.95-1.44c-0.72-0.55-1.66-0.7-2.52-0.41c-0.64,0.22-1.17,0.66-1.5,1.24
		l4.96,8.58L22.5,21.63z"/>
	<path class="st0" d="M20.35,27.3v-1.57c0.1-0.01,0.19-0.03,0.29-0.05c0.26-0.03,0.52-0.08,0.77-0.15l-0.47-0.81
		c-0.2,0.05-0.4,0.08-0.6,0.09c-0.09,0.01-0.4,0.01-0.5,0.01c0,0-0.04,0-0.09,0l-0.13,0c-0.09,0-0.19,0-0.25-0.01
		c-0.2-0.01-0.39-0.06-0.57-0.12c-0.02-0.01-0.04-0.02-0.06-0.02c-0.19-0.07-0.38-0.15-0.57-0.25h0c-0.19-0.09-0.36-0.2-0.53-0.33
		l0,0c-0.68-0.5-1.19-1.21-1.42-2.02c-0.1-0.45-0.17-0.91-0.19-1.37v-1.02c0-0.02,0-0.03,0-0.05c0-0.06,0-0.12,0-0.17
		c0-0.05,0-0.1-0.01-0.15c-0.03-0.11-0.1-0.2-0.19-0.27c-0.15-0.14-0.38-0.14-0.53,0c-0.09,0.07-0.15,0.16-0.18,0.27
		c-0.01,0.05-0.02,0.1-0.02,0.15l0,0.71c0-0.03,0-0.06,0-0.08l0-0.4l0-0.03l0,0.33l0.01,0.33c0.01,0.52,0.05,1.05,0.13,1.56
		c0.08,0.48,0.24,0.95,0.46,1.39c0.45,0.88,1.16,1.59,2.04,2.04c0.46,0.2,0.94,0.33,1.44,0.38c0.09,0.02,0.19,0.03,0.29,0.04v1.58
		h-2.12c-0.13-0.01-0.26,0.03-0.36,0.12c-0.1,0.09-0.15,0.21-0.16,0.35c0,0.13,0.06,0.26,0.16,0.34c0.1,0.09,0.23,0.13,0.36,0.12
		h5.19v0c0.12,0,0.24-0.04,0.33-0.13c0.01-0.01,0.02-0.02,0.03-0.04l-0.44-0.76L20.35,27.3z"/>
	<path class="st0" d="M24.11,23.26c0.22-0.44,0.37-0.9,0.46-1.39c0.08-0.52,0.12-1.04,0.13-1.56c0.01-0.22,0.01-0.45,0.01-0.67
		l0-0.02l0,0.02l0-0.12c0-0.02,0-0.05,0-0.07c0-0.05-0.01-0.1-0.02-0.15c-0.03-0.11-0.09-0.2-0.18-0.27c-0.15-0.14-0.38-0.14-0.53,0
		c-0.09,0.07-0.15,0.16-0.18,0.27c-0.01,0.05-0.01,0.1-0.01,0.15c0,0.06,0,0.12,0,0.17c0,0.02,0,0.03,0,0.05l-0.01,0.95v0.07
		c-0.03,0.46-0.09,0.92-0.19,1.37c-0.09,0.3-0.21,0.59-0.37,0.85l0.54,0.94C23.89,23.66,24.01,23.46,24.11,23.26z"/>
	<path class="st0" d="M17.28,21.63c0.24,0.87,0.9,1.57,1.75,1.85c0.41,0.14,0.84,0.18,1.26,0.11l-3.15-5.46l0,2.22
		c0,0.14,0.01,0.29,0.01,0.43C17.17,21.08,17.21,21.36,17.28,21.63z"/>

		<rect x="19.4" y="10.59" transform="matrix(0.8659 -0.5002 0.5002 0.8659 -7.3366 12.6567)" class="st0" width="1.09" height="18.85"/>
</g>
</svg>