<!-- <svg width="24" height="24" viewBox="0 0 24 24" xmlns="http://www.w3.org/2000/svg">
<path fill-rule="evenodd" clip-rule="evenodd" d="M16 6C16 3.79086 14.2091 2 12 2C9.79086 2 8 3.79086 8 6V12C8 13.8666 9.27853 15.4346 11.0076 15.8759C11.0026 15.9166 11 15.958 11 16V17.917C8.16229 17.441 6 14.973 6 12C6 11.4477 5.55228 11 5 11C4.44772 11 4 11.4477 4 12C4 16.0796 7.05369 19.446 11 19.9381V21C11 21.5523 11.4477 22 12 22C12.5523 22 13 21.5523 13 21V19.9381C16.9463 19.446 20 16.0796 20 12C20 11.4477 19.5523 11 19 11C18.4477 11 18 11.4477 18 12C18 14.973 15.8377 17.441 13 17.917V16C13 15.958 12.9974 15.9166 12.9924 15.8759C14.7215 15.4346 16 13.8666 16 12V6ZM12 4C10.8954 4 10 4.89543 10 6V12C10 13.1046 10.8954 14 12 14C13.1046 14 14 13.1046 14 12V6C14 4.89543 13.1046 4 12 4Z" />
</svg> -->

<?xml version="1.0" encoding="UTF-8"?>
<svg width="45px" height="45px" viewBox="0 0 45 45" version="1.1" xmlns="http://www.w3.org/2000/svg" xmlns:xlink="http://www.w3.org/1999/xlink">
    <title>Group 19</title>
    <g id="Desktop-Layouts" stroke="none" stroke-width="1" fill="none" fill-rule="evenodd">
        <g id="Group-19">
            <circle id="Oval" fill="#F40537" cx="22.5" cy="22.5" r="22.5"></circle>
            <g id="Element-6-Copy-2" transform="translate(14.000000, 11.000000)" fill-rule="nonzero">
                <g id="Element-6-Copy" transform="translate(-0.000000, -0.000000)">
                    <path d="M7.658874,15.4978836 C10.0992613,15.4978836 12.077586,13.5195588 12.077586,11.0791716 L12.077586,4.37237158 C12.0521825,1.95019534 10.0814264,0 7.659117,0 C5.23680755,0 3.26605152,1.95019534 3.24064797,4.37237158 L3.24064797,11.0791716 C3.2405191,12.2510422 3.70595252,13.3749601 4.5345446,14.2036433 C5.36313667,15.0323265 6.4870034,15.4978836 7.658874,15.4978836 L7.658874,15.4978836 Z" id="Path" fill="#FFFFFF"></path>
                    <path d="M15.273522,10.7224476 C15.273522,10.5077193 15.0994503,10.3336476 14.884722,10.3336476 C14.6699937,10.3336476 14.495922,10.5077193 14.495922,10.7224476 C14.495922,14.5044996 11.419056,17.5813656 7.636518,17.5813656 C3.85398,17.5813656 0.7776,14.5044996 0.7776,10.7224476 C0.7776,10.5077193 0.603528311,10.3336476 0.3888,10.3336476 C0.174071689,10.3336476 0,10.5077193 0,10.7224476 C0,14.8048476 3.216834,18.1460976 7.247718,18.3492456 L7.247718,21.9806376 L3.766986,21.9806376 C3.55225769,21.9806376 3.378186,22.1547093 3.378186,22.3694376 C3.378186,22.5841659 3.55225769,22.7582376 3.766986,22.7582376 L11.506536,22.7582376 C11.7212643,22.7582376 11.895336,22.5841659 11.895336,22.3694376 C11.895336,22.1547093 11.7212643,21.9806376 11.506536,21.9806376 L8.025318,21.9806376 L8.025318,18.3492456 C12.056202,18.1460976 15.273522,14.8029036 15.273522,10.7224476 Z" id="Path" fill="#FFFFFF"></path>
                    <path d="M7.662762,0.731745575 C9.67261485,0.733887974 11.3014633,2.36251903 11.303874,4.37237158 L11.303874,11.0791716 C11.3190184,12.3899526 10.6284039,13.607697 9.49569106,14.2674983 C8.36297816,14.9272996 6.96303184,14.9272996 5.83031894,14.2674983 C4.69760605,13.607697 4.00699157,12.3899526 4.022136,11.0791716 L4.022136,4.37237158 C4.02454615,2.36270852 5.65309894,0.734155727 7.662762,0.731745575 Z" id="Shape" fill="#F40537"></path>
                </g>
            </g>
        </g>
    </g>
</svg>