<!-- <svg xmlns="http://www.w3.org/2000/svg" width="22" height="22" viewBox="0 0 22 22">
<path fill-rule="evenodd" clip-rule="evenodd" d="M7.33331 8.65092V11C7.33331 12.711 8.5053 14.1483 10.0903 14.5529C10.0857 14.5902 10.0833 14.6281 10.0833 14.6666V16.4239C7.48208 15.9875 5.49998 13.7252 5.49998 11C5.49998 10.4937 5.08957 10.0833 4.58331 10.0833C4.07705 10.0833 3.66665 10.4937 3.66665 11C3.66665 14.7396 6.46586 17.8255 10.0833 18.2766V19.25C10.0833 19.7562 10.4937 20.1666 11 20.1666C11.5062 20.1666 11.9166 19.7562 11.9166 19.25V18.2766C13.2504 18.1103 14.4729 17.5858 15.4849 16.8025L18.576 19.8936C18.94 20.2576 19.53 20.2577 19.8938 19.8938C20.2577 19.53 20.2576 18.94 19.8936 18.576L16.8025 15.4849C16.8058 15.4805 16.8092 15.4762 16.8125 15.4718L15.5016 14.1608C15.4984 14.1653 15.4952 14.1699 15.492 14.1744L14.1668 12.8492C14.1697 12.8444 14.1725 12.8395 14.1754 12.8346L12.7803 11.4396C12.7788 11.4457 12.7772 11.4519 12.7756 11.458L9.16665 7.84904V7.82592L7.33331 5.99259V6.01571L3.42395 2.10635C3.05999 1.74238 2.46998 1.74229 2.10614 2.10614C1.74229 2.46998 1.74238 3.05999 2.10635 3.42395L7.33331 8.65092ZM9.16665 10.4843V11C9.16665 12.0125 9.98746 12.8333 11 12.8333C11.1581 12.8333 11.3116 12.8133 11.458 12.7756L9.16665 10.4843ZM12.8492 14.1668C12.5591 14.3366 12.2435 14.4677 11.9097 14.5529C11.9143 14.5902 11.9166 14.6281 11.9166 14.6666V16.4239C12.7471 16.2846 13.5145 15.9592 14.1744 15.492L12.8492 14.1668ZM14.6666 10.6907L12.8333 8.85737V5.49998C12.8333 4.48746 12.0125 3.66665 11 3.66665C10.0851 3.66665 9.3267 4.33681 9.18897 5.21303L7.7592 3.78326C8.37493 2.6233 9.5952 1.83331 11 1.83331C13.025 1.83331 14.6666 3.47494 14.6666 5.49998V10.6907ZM16.3316 12.3557L17.7787 13.8027C18.1361 12.9392 18.3333 11.9926 18.3333 11C18.3333 10.4937 17.9229 10.0833 17.4166 10.0833C16.9104 10.0833 16.5 10.4937 16.5 11C16.5 11.4678 16.4416 11.922 16.3316 12.3557Z"/>
</svg> -->

<?xml version="1.0" encoding="UTF-8"?>
<svg width="45px" height="45px" viewBox="0 0 45 45" version="1.1" xmlns="http://www.w3.org/2000/svg" xmlns:xlink="http://www.w3.org/1999/xlink">
    <title>Group 18</title>
    <g id="Desktop-Layouts" stroke="none" stroke-width="1" fill="none" fill-rule="evenodd">
        <g id="Group-17">
            <circle id="Oval" fill="#FFFFFF" cx="22.5" cy="22.5" r="22.5"></circle>
            <path d="M21.8744044,26.5509183 C23.046275,26.5509183 24.1701417,26.0853612 24.9987338,25.256678 C25.8273259,24.4279948 26.2927593,23.3040769 26.2926304,22.1322063 L26.2926304,16.3847703 L30.2238844,12.4535163 C30.3221596,12.3553279 30.3605868,12.2121689 30.3246907,12.0779659 C30.2887947,11.9437629 30.1840289,11.8389045 30.0498577,11.8028899 C29.9156865,11.7668753 29.7724936,11.8051759 29.6742184,11.9033643 L26.2902004,15.2873823 C26.2186458,12.8724432 24.220598,10.9628087 21.8048938,11.0005499 C19.3891897,11.0382911 17.451772,13.0094105 17.4556924,15.4254063 L17.4556924,22.1322063 C17.4551708,22.7029946 17.565425,23.2684598 17.7803404,23.7972423 L16.0880884,25.4899803 C15.371638,24.383699 14.9911434,23.0934949 14.9926444,21.7754823 C14.9926444,21.560754 14.8185727,21.3866823 14.6038444,21.3866823 C14.3891161,21.3866823 14.2150444,21.560754 14.2150444,21.7754823 C14.2131054,23.3004982 14.6703487,24.7907725 15.5272444,26.0522823 L13.1137684,28.4638143 C12.9619823,28.6157346 12.9620911,28.8619372 13.1140114,29.0137233 C13.2659317,29.1655093 13.5121343,29.1654005 13.6639204,29.0134803 L16.0006084,26.6767923 C17.3625418,28.3062985 19.3422953,29.2940617 21.4632484,29.4022803 L21.4632484,33.0336723 L17.9820304,33.0336723 C17.7673021,33.0336723 17.5932304,33.207744 17.5932304,33.4224723 C17.5932304,33.6372006 17.7673021,33.8112723 17.9820304,33.8112723 L25.7215804,33.8112723 C25.9363087,33.8112723 26.1103804,33.6372006 26.1103804,33.4224723 C26.1103804,33.207744 25.9363087,33.0336723 25.7215804,33.0336723 L22.2408484,33.0336723 L22.2408484,29.4022803 C26.2717324,29.1991323 29.4885664,25.8544803 29.4885664,21.7754823 C29.4885664,21.560754 29.3144947,21.3866823 29.0997664,21.3866823 C28.8850381,21.3866823 28.7109664,21.560754 28.7109664,21.7754823 C28.7109664,25.5575343 25.6341004,28.6344003 21.8520484,28.6344003 C19.7994846,28.6339455 17.8553045,27.7130463 16.5546484,26.1251823 L18.1584484,24.5213823 C18.9706056,25.7866157 20.3709369,26.5514317 21.8744044,26.5509183 Z M25.5150306,22.1322063 C25.5155474,23.7796267 24.4094328,25.2219784 22.8182516,25.6487529 C21.2270704,26.0755274 19.5476295,25.3802962 18.7236664,23.9537343 L25.5150306,17.1623703 L25.5150306,22.1322063 Z M18.2332924,22.1322063 L18.2332924,15.4254063 C18.2563351,13.4310172 19.8796392,11.8263599 21.8741614,11.8263599 C23.8686836,11.8263599 25.4919877,13.4310172 25.5150304,15.4254063 L25.5150304,16.0615803 L18.3897844,23.1877983 C18.2860758,22.8455262 18.2332924,22.4898453 18.2332924,22.1322063 Z" id="Shape" fill="#000000" fill-rule="nonzero"></path>
        </g>
    </g>
</svg>