<!-- <svg xmlns="http://www.w3.org/2000/svg" width="22" height="22" viewBox="0 0 22 22">
<path fill-rule="evenodd" clip-rule="evenodd" d="M7.33331 8.65092V11C7.33331 12.711 8.5053 14.1483 10.0903 14.5529C10.0857 14.5902 10.0833 14.6281 10.0833 14.6666V16.4239C7.48208 15.9875 5.49998 13.7252 5.49998 11C5.49998 10.4937 5.08957 10.0833 4.58331 10.0833C4.07705 10.0833 3.66665 10.4937 3.66665 11C3.66665 14.7396 6.46586 17.8255 10.0833 18.2766V19.25C10.0833 19.7562 10.4937 20.1666 11 20.1666C11.5062 20.1666 11.9166 19.7562 11.9166 19.25V18.2766C13.2504 18.1103 14.4729 17.5858 15.4849 16.8025L18.576 19.8936C18.94 20.2576 19.53 20.2577 19.8938 19.8938C20.2577 19.53 20.2576 18.94 19.8936 18.576L16.8025 15.4849C16.8058 15.4805 16.8092 15.4762 16.8125 15.4718L15.5016 14.1608C15.4984 14.1653 15.4952 14.1699 15.492 14.1744L14.1668 12.8492C14.1697 12.8444 14.1725 12.8395 14.1754 12.8346L12.7803 11.4396C12.7788 11.4457 12.7772 11.4519 12.7756 11.458L9.16665 7.84904V7.82592L7.33331 5.99259V6.01571L3.42395 2.10635C3.05999 1.74238 2.46998 1.74229 2.10614 2.10614C1.74229 2.46998 1.74238 3.05999 2.10635 3.42395L7.33331 8.65092ZM9.16665 10.4843V11C9.16665 12.0125 9.98746 12.8333 11 12.8333C11.1581 12.8333 11.3116 12.8133 11.458 12.7756L9.16665 10.4843ZM12.8492 14.1668C12.5591 14.3366 12.2435 14.4677 11.9097 14.5529C11.9143 14.5902 11.9166 14.6281 11.9166 14.6666V16.4239C12.7471 16.2846 13.5145 15.9592 14.1744 15.492L12.8492 14.1668ZM14.6666 10.6907L12.8333 8.85737V5.49998C12.8333 4.48746 12.0125 3.66665 11 3.66665C10.0851 3.66665 9.3267 4.33681 9.18897 5.21303L7.7592 3.78326C8.37493 2.6233 9.5952 1.83331 11 1.83331C13.025 1.83331 14.6666 3.47494 14.6666 5.49998V10.6907ZM16.3316 12.3557L17.7787 13.8027C18.1361 12.9392 18.3333 11.9926 18.3333 11C18.3333 10.4937 17.9229 10.0833 17.4166 10.0833C16.9104 10.0833 16.5 10.4937 16.5 11C16.5 11.4678 16.4416 11.922 16.3316 12.3557Z"/>
</svg> -->

<?xml version="1.0" encoding="UTF-8"?>
<svg width="45px" height="45px" viewBox="0 0 45 45" version="1.1" xmlns="http://www.w3.org/2000/svg" xmlns:xlink="http://www.w3.org/1999/xlink">
    <title>micro-ico</title>
    <g id="Desktop-Layouts" stroke="none" stroke-width="1" fill="none" fill-rule="evenodd">
        <g id="dCLX_mytraining_LOT_presentation-(Userview)-NEW" transform="translate(-963.000000, -83.000000)">
            <g id="Nav-Bar" transform="translate(55.000000, 71.000000)">
                <g id="controls" transform="translate(854.000000, 11.000000)">
                    <g id="steuerung" transform="translate(0.000000, 1.000000)">
                        <g id="micro-ico" transform="translate(54.000000, 0.000000)">
                            <circle id="Oval" fill="#FFFFFF" cx="22.5" cy="22.5" r="22.5"></circle>
                            <g id="Element-7-Copy" transform="translate(14.000000, 12.000000)" fill="#000000" fill-rule="nonzero">
                                <path d="M8.87436,15.592338 C10.0462306,15.592338 11.1700973,15.126781 11.9986894,14.2980977 C12.8272815,13.4694145 13.2927149,12.3454966 13.292586,11.173626 L13.292586,5.42619 L17.22384,1.494936 C17.3221152,1.39674763 17.3605423,1.25358864 17.3246463,1.11938564 C17.2887503,0.985182636 17.1839845,0.880324255 17.0498133,0.844309632 C16.9156421,0.808295009 16.7724492,0.846595622 16.674174,0.944784 L13.290156,4.328802 C13.2186014,1.91386288 11.2205536,0.00422840914 8.80484942,0.0419696338 C6.38914526,0.0797108585 4.45172754,2.05083021 4.455648,4.466826 L4.455648,11.173626 C4.45512643,11.7444143 4.56538058,12.3098795 4.780296,12.838662 L3.088044,14.5314 C2.37159355,13.4251187 1.99109898,12.1349146 1.9926,10.816902 C1.9926,10.6021737 1.81852831,10.428102 1.6038,10.428102 C1.38907169,10.428102 1.215,10.6021737 1.215,10.816902 C1.21306103,12.3419179 1.67030427,13.8321922 2.5272,15.093702 L0.113724,17.505234 C-0.038062068,17.6571543 -0.03795327,17.9033569 0.113967007,18.055143 C0.265887284,18.2069291 0.512089924,18.2068203 0.663876,18.0549 L3.000564,15.718212 C4.36249743,17.3477183 6.34225089,18.3354814 8.463204,18.4437 L8.463204,22.075092 L4.981986,22.075092 C4.76725769,22.075092 4.593186,22.2491637 4.593186,22.463892 C4.593186,22.6786203 4.76725769,22.852692 4.981986,22.852692 L12.721536,22.852692 C12.9362643,22.852692 13.110336,22.6786203 13.110336,22.463892 C13.110336,22.2491637 12.9362643,22.075092 12.721536,22.075092 L9.240804,22.075092 L9.240804,18.4437 C13.271688,18.240552 16.488522,14.8959 16.488522,10.816902 C16.488522,10.6021737 16.3144503,10.428102 16.099722,10.428102 C15.8849937,10.428102 15.710922,10.6021737 15.710922,10.816902 C15.710922,14.598954 12.634056,17.67582 8.852004,17.67582 C6.79944018,17.6753653 4.85526011,16.754466 3.554604,15.166602 L5.158404,13.562802 C5.97056116,14.8280354 7.37089247,15.5928515 8.87436,15.592338 Z M12.5149862,11.173626 C12.515503,12.8210464 11.4093884,14.2633981 9.8182072,14.6901727 C8.22702598,15.1169472 6.54758513,14.4217159 5.723622,12.995154 L12.5149862,6.20379 L12.5149862,11.173626 Z M5.233248,11.173626 L5.233248,4.466826 C5.25629067,2.47243693 6.87959482,0.867779679 8.874117,0.867779679 C10.8686392,0.867779679 12.4919433,2.47243693 12.514986,4.466826 L12.514986,5.103 L5.38974,12.229218 C5.28603134,11.8869459 5.233248,11.531265 5.233248,11.173626 Z" id="Shape"></path>
                            </g>
                        </g>
                    </g>
                </g>
            </g>
        </g>
    </g>
</svg>