<!-- <svg width="24" height="24" viewBox="0 0 24 24" xmlns="http://www.w3.org/2000/svg">
<path fill-rule="evenodd" clip-rule="evenodd" d="M16 6C16 3.79086 14.2091 2 12 2C9.79086 2 8 3.79086 8 6V12C8 13.8666 9.27853 15.4346 11.0076 15.8759C11.0026 15.9166 11 15.958 11 16V17.917C8.16229 17.441 6 14.973 6 12C6 11.4477 5.55228 11 5 11C4.44772 11 4 11.4477 4 12C4 16.0796 7.05369 19.446 11 19.9381V21C11 21.5523 11.4477 22 12 22C12.5523 22 13 21.5523 13 21V19.9381C16.9463 19.446 20 16.0796 20 12C20 11.4477 19.5523 11 19 11C18.4477 11 18 11.4477 18 12C18 14.973 15.8377 17.441 13 17.917V16C13 15.958 12.9974 15.9166 12.9924 15.8759C14.7215 15.4346 16 13.8666 16 12V6ZM12 4C10.8954 4 10 4.89543 10 6V12C10 13.1046 10.8954 14 12 14C13.1046 14 14 13.1046 14 12V6C14 4.89543 13.1046 4 12 4Z" />
</svg> -->

<?xml version="1.0" encoding="UTF-8"?>
<svg width="45px" height="45px" viewBox="0 0 45 45" version="1.1" xmlns="http://www.w3.org/2000/svg" xmlns:xlink="http://www.w3.org/1999/xlink">
    <title>micro-ico</title>
    <g id="Desktop-Layouts" stroke="none" stroke-width="1" fill="none" fill-rule="evenodd">
        <g id="dCLX_mytraining_LOT_presentation-(Userview)-NEW" transform="translate(-963.000000, -83.000000)">
            <g id="Nav-Bar" transform="translate(55.000000, 71.000000)">
                <g id="controls" transform="translate(854.000000, 11.000000)">
                    <g id="steuerung" transform="translate(0.000000, 1.000000)">
                        <g id="micro-ico" transform="translate(54.000000, 0.000000)">
                            <circle id="Oval" fill="#FFFFFF" cx="22.5" cy="22.5" r="22.5"></circle>
                            <g id="Element-7-Copy" transform="translate(14.000000, 12.000000)" fill="#000000" fill-rule="nonzero">
                                <path d="M8.87436,15.592338 C10.0462306,15.592338 11.1700973,15.126781 11.9986894,14.2980977 C12.8272815,13.4694145 13.2927149,12.3454966 13.292586,11.173626 L13.292586,5.42619 L17.22384,1.494936 C17.3221152,1.39674763 17.3605423,1.25358864 17.3246463,1.11938564 C17.2887503,0.985182636 17.1839845,0.880324255 17.0498133,0.844309632 C16.9156421,0.808295009 16.7724492,0.846595622 16.674174,0.944784 L13.290156,4.328802 C13.2186014,1.91386288 11.2205536,0.00422840914 8.80484942,0.0419696338 C6.38914526,0.0797108585 4.45172754,2.05083021 4.455648,4.466826 L4.455648,11.173626 C4.45512643,11.7444143 4.56538058,12.3098795 4.780296,12.838662 L3.088044,14.5314 C2.37159355,13.4251187 1.99109898,12.1349146 1.9926,10.816902 C1.9926,10.6021737 1.81852831,10.428102 1.6038,10.428102 C1.38907169,10.428102 1.215,10.6021737 1.215,10.816902 C1.21306103,12.3419179 1.67030427,13.8321922 2.5272,15.093702 L0.113724,17.505234 C-0.038062068,17.6571543 -0.03795327,17.9033569 0.113967007,18.055143 C0.265887284,18.2069291 0.512089924,18.2068203 0.663876,18.0549 L3.000564,15.718212 C4.36249743,17.3477183 6.34225089,18.3354814 8.463204,18.4437 L8.463204,22.075092 L4.981986,22.075092 C4.76725769,22.075092 4.593186,22.2491637 4.593186,22.463892 C4.593186,22.6786203 4.76725769,22.852692 4.981986,22.852692 L12.721536,22.852692 C12.9362643,22.852692 13.110336,22.6786203 13.110336,22.463892 C13.110336,22.2491637 12.9362643,22.075092 12.721536,22.075092 L9.240804,22.075092 L9.240804,18.4437 C13.271688,18.240552 16.488522,14.8959 16.488522,10.816902 C16.488522,10.6021737 16.3144503,10.428102 16.099722,10.428102 C15.8849937,10.428102 15.710922,10.6021737 15.710922,10.816902 C15.710922,14.598954 12.634056,17.67582 8.852004,17.67582 C6.79944018,17.6753653 4.85526011,16.754466 3.554604,15.166602 L5.158404,13.562802 C5.97056116,14.8280354 7.37089247,15.5928515 8.87436,15.592338 Z M12.5149862,11.173626 C12.515503,12.8210464 11.4093884,14.2633981 9.8182072,14.6901727 C8.22702598,15.1169472 6.54758513,14.4217159 5.723622,12.995154 L12.5149862,6.20379 L12.5149862,11.173626 Z M5.233248,11.173626 L5.233248,4.466826 C5.25629067,2.47243693 6.87959482,0.867779679 8.874117,0.867779679 C10.8686392,0.867779679 12.4919433,2.47243693 12.514986,4.466826 L12.514986,5.103 L5.38974,12.229218 C5.28603134,11.8869459 5.233248,11.531265 5.233248,11.173626 Z" id="Shape"></path>
                            </g>
                        </g>
                    </g>
                </g>
            </g>
        </g>
    </g>
</svg>