<!-- Generated by IcoMoon.io -->
<!-- <svg version="1.1" xmlns="http://www.w3.org/2000/svg" width="32" height="32" viewBox="0 0 32 32">
<title>microphone</title>
<path d="M23.063 14.688h2.25c0 4.563-3.625 8.313-8 8.938v4.375h-2.625v-4.375c-4.375-0.625-8-4.375-8-8.938h2.25c0 4 3.375 6.75 7.063 6.75s7.063-2.75 7.063-6.75zM16 18.688c-2.188 0-4-1.813-4-4v-8c0-2.188 1.813-4 4-4s4 1.813 4 4v8c0 2.188-1.813 4-4 4z"></path>
</svg>
 -->


<?xml version="1.0" encoding="utf-8"?>
<!-- Generator: Adobe Illustrator 25.0.0, SVG Export Plug-In . SVG Version: 6.00 Build 0)  -->
<svg version="1.1" id="Ebene_1" xmlns="http://www.w3.org/2000/svg" xmlns:xlink="http://www.w3.org/1999/xlink" x="0px" y="0px"
      height="24" width="24" viewBox="8 8 24 24" xml:space="preserve">
<title>microphone</title>
<style type="text/css">
    .st0{fill:#FFFFFF;}
    .st1{fill-rule:evenodd;clip-rule:evenodd;fill:#FFFFFF;}
</style>
<g>
    <defs>
        <rect id="SVGID_1_" x="-1120.79" y="-1175.05" width="1680" height="1302"/>
    </defs>
    <clipPath id="SVGID_2_">
        <use xlink:href="#SVGID_1_"  style="overflow:visible;"/>
    </clipPath>
</g>
<g>
    <defs>
        <rect id="SVGID_3_" x="-1120.79" y="-1175.05" width="1680" height="1302"/>
    </defs>
    <clipPath id="SVGID_4_">
        <use xlink:href="#SVGID_3_"  style="overflow:visible;"/>
    </clipPath>
</g>
<g>
    <defs>
        <rect id="SVGID_5_" x="-1253.22" y="-684.86" width="1680" height="1302"/>
    </defs>
    <clipPath id="SVGID_6_">
        <use xlink:href="#SVGID_5_"  style="overflow:visible;"/>
    </clipPath>
</g>
<g>
    <path class="st0" d="M17.13,21.47c0.17,0.61,0.54,1.15,1.05,1.53c1.04,0.82,2.51,0.82,3.55,0c0.51-0.38,0.88-0.92,1.05-1.53
        c0.08-0.29,0.12-0.59,0.14-0.89c0.02-0.33,0.02-0.68,0.02-1.02h0v-2.79c0-0.33,0.02-1.71,0-2.04c-0.02-0.3-0.07-0.6-0.15-0.89
        c-0.35-1.27-1.51-2.14-2.82-2.14s-2.47,0.88-2.82,2.14c-0.09,0.29-0.15,0.59-0.15,0.89c0,0.25,0,1.71,0,2.04v2.79
        c0,0.33,0,0.68,0.02,1.02C17,20.88,17.05,21.18,17.13,21.47z M18.08,14.74c0.01-0.19,0.04-0.38,0.09-0.57
        c0.11-0.39,0.34-0.74,0.66-0.98c0.66-0.51,1.57-0.51,2.23,0c0.32,0.25,0.55,0.59,0.66,0.98c0.06,0.19,0.09,0.38,0.11,0.57
        c0.02,0.25,0,2.4,0,5.35c0,0.21,0,0.28-0.02,0.49c-0.01,0.19-0.04,0.38-0.09,0.57c-0.11,0.39-0.34,0.74-0.66,0.98
        c-0.66,0.51-1.57,0.51-2.23,0c-0.32-0.25-0.55-0.59-0.66-0.98c-0.05-0.19-0.08-0.38-0.09-0.57c-0.01-0.21-0.01-0.28-0.01-0.49
        C18.08,17.15,18.07,14.97,18.08,14.74z"/>
    <path class="st0" d="M24.37,18.54c-0.3,0-0.55,0.25-0.55,0.55c0,0,0,0,0,0.01v1.84H23.8c-0.16,1.96-1.77,3.49-3.74,3.56h-0.22
        c-1.97-0.07-3.58-1.6-3.74-3.56h-0.01v-0.21l0-0.06v0h0l0-1.53l0-0.05c0-0.3-0.25-0.55-0.55-0.55c-0.3,0-0.55,0.25-0.55,0.55
        c0,0.02,0,0.05,0,0.07l0,1.26c0,0.02,0,0.04,0,0.07c0,2.54,1.9,4.68,4.42,4.97v1.68h-2.08v0.01l-0.02,0c-0.3,0-0.55,0.25-0.55,0.55
        c0,0.3,0.25,0.55,0.55,0.55c0.01,0,0.01,0,0.02,0h5.26l0,0l0.02,0c0.3,0,0.55-0.25,0.55-0.55c0-0.3-0.25-0.55-0.55-0.55
        c-0.01,0-0.02,0-0.02,0l0-0.01H20.5v-1.68c2.52-0.3,4.41-2.44,4.41-4.97h0.01v-1.37l0-0.03C24.92,18.79,24.67,18.54,24.37,18.54z"
        />
</g>
</svg>