<!-- Generated by IcoMoon.io 
<svg version="1.1" xmlns="http://www.w3.org/2000/svg" width="32" height="32" viewBox="0 0 32 32">
<title>share-desktop</title>
<path d="M28 22.688v-16h-24v16h24zM28 4c1.438 0 2.688 1.25 2.688 2.688l-0.063 16c0 1.438-1.188 2.625-2.625 2.625h-6.688v2.688h-10.625v-2.688h-6.688c-1.438 0-2.688-1.188-2.688-2.625v-16c0-1.438 1.25-2.688 2.688-2.688h24z"></path>
</svg>
-->

<!-- <svg width="24px" height="24px" viewBox="0 0 24 24" version="1.1" xmlns="http://www.w3.org/2000/svg" xmlns:xlink="http://www.w3.org/1999/xlink">
    <title>share-desktop</title>
    <g id="Screenshare" stroke="none" stroke-width="1" fill="none" fill-rule="evenodd">
        <polyline id="box" stroke="#FFF" stroke-linejoin="round" transform="translate(11.500000, 10.500000) scale(1, -1) translate(-11.500000, -10.500000) " points="15.8436651 3 22 3 22 18 1 18 1 3 7.125 3"></polyline>
        <path d="M11.5,21.5 L11.5,9.00126652 M8,12.5 L11.5,9 L15,12.5" stroke="#FFF"></path>
    </g>
</svg> -->


<!-- Generator: Adobe Illustrator 25.0.0, SVG Export Plug-In . SVG Version: 6.00 Build 0)  -->
<?xml version="1.0" encoding="UTF-8"?>
<svg width="45px" height="45px" viewBox="0 0 45 45" version="1.1" xmlns="http://www.w3.org/2000/svg" xmlns:xlink="http://www.w3.org/1999/xlink">
    <title>handraise-ico copy 2</title>
    <defs>
        <filter id="filter-1">
            <feColorMatrix in="SourceGraphic" type="matrix" values="0 0 0 0 0.000000 0 0 0 0 0.000000 0 0 0 0 0.000000 0 0 0 1.000000 0"></feColorMatrix>
        </filter>
    </defs>
    <g id="Desktop-Layouts" stroke="none" stroke-width="1" fill="none" fill-rule="evenodd">
        <g id="dCLX_mytraining_LOT_presentation-(Userview)-NEW" transform="translate(-1017.000000, -83.000000)">
            <g id="Nav-Bar" transform="translate(55.000000, 71.000000)">
                <g id="controls" transform="translate(854.000000, 11.000000)">
                    <g id="steuerung" transform="translate(0.000000, 1.000000)">
                        <g id="handraise-ico-copy-2" transform="translate(108.000000, 0.000000)">
                            <circle id="Oval" fill="#FFFFFF" cx="22.5" cy="22.5" r="22.5"></circle>
                            <g id="screen-share" transform="translate(11.000000, 11.000000)" filter="url(#filter-1)">
                                <g>
                                    <polyline id="box" stroke="#000000" stroke-linejoin="round" transform="translate(11.500000, 10.500000) scale(1, -1) translate(-11.500000, -10.500000) " points="15.8436651 3 22 3 22 18 1 18 1 3 7.125 3"></polyline>
                                    <path d="M11.5,21.5 L11.5,9.00126652 M8,12.5 L11.5,9 L15,12.5" id="arrow" stroke="#000000"></path>
                                </g>
                            </g>
                        </g>
                    </g>
                </g>
            </g>
        </g>
    </g>
</svg>