<!-- Generated by IcoMoon.io 
<svg version="1.1" xmlns="http://www.w3.org/2000/svg" width="32" height="32" viewBox="0 0 32 32">
<title>share-desktop</title>
<path d="M28 22.688v-16h-24v16h24zM28 4c1.438 0 2.688 1.25 2.688 2.688l-0.063 16c0 1.438-1.188 2.625-2.625 2.625h-6.688v2.688h-10.625v-2.688h-6.688c-1.438 0-2.688-1.188-2.688-2.625v-16c0-1.438 1.25-2.688 2.688-2.688h24z"></path>
</svg>
-->

<!-- <svg width="24px" height="24px" viewBox="0 0 24 24" version="1.1" xmlns="http://www.w3.org/2000/svg" xmlns:xlink="http://www.w3.org/1999/xlink">
    <title>share-desktop</title>
    <g id="Screenshare" stroke="none" stroke-width="1" fill="none" fill-rule="evenodd">
        <polyline id="box" stroke="#FFF" stroke-linejoin="round" transform="translate(11.500000, 10.500000) scale(1, -1) translate(-11.500000, -10.500000) " points="15.8436651 3 22 3 22 18 1 18 1 3 7.125 3"></polyline>
        <path d="M11.5,21.5 L11.5,9.00126652 M8,12.5 L11.5,9 L15,12.5" stroke="#FFF"></path>
    </g>
</svg> -->


<!-- Generator: Adobe Illustrator 25.0.0, SVG Export Plug-In . SVG Version: 6.00 Build 0)  -->
<svg version="1.1" id="Ebene_1" xmlns="http://www.w3.org/2000/svg" xmlns:xlink="http://www.w3.org/1999/xlink" x="0px" y="0px"
	height="24" width="24" viewBox="8 8 24 24" xml:space="preserve">
<style type="text/css">
	.st0{fill:#FFFFFF;}
	.st1{fill-rule:evenodd;clip-rule:evenodd;fill:#FFFFFF;}
</style>
<g>
	<defs>
		<rect id="SVGID_1_" x="-933.24" y="-1175.05" width="1680" height="1302"/>
	</defs>
	<clipPath id="SVGID_2_">
		<use xlink:href="#SVGID_1_"  style="overflow:visible;"/>
	</clipPath>
</g>
<g>
	<defs>
		<rect id="SVGID_3_" x="-933.24" y="-1175.05" width="1680" height="1302"/>
	</defs>
	<clipPath id="SVGID_4_">
		<use xlink:href="#SVGID_3_"  style="overflow:visible;"/>
	</clipPath>
</g>
<g>
	<defs>
		<rect id="SVGID_5_" x="-1065.67" y="-684.86" width="1680" height="1302"/>
	</defs>
	<clipPath id="SVGID_6_">
		<use xlink:href="#SVGID_5_"  style="overflow:visible;"/>
	</clipPath>
</g>
<g>
	<path class="st0" d="M30.79,10.64h-21c-0.34,0-0.62,0.28-0.62,0.62v15c0,0.34,0.28,0.62,0.62,0.62h6.12v-1.25h-5.5V11.89h19.75
		v13.75h-5.53v1.25h6.16c0.34,0,0.62-0.28,0.62-0.62v-15C31.42,10.92,31.14,10.64,30.79,10.64z"/>
	<polygon class="st0" points="16.35,20.32 17.23,21.21 19.67,18.77 19.67,29.77 20.92,29.77 20.92,18.77 23.35,21.21 24.23,20.32 
		20.29,16.38 	"/>
</g>
</svg>