<!-- Generated by IcoMoon.io -->
<!-- <svg version="1.1" xmlns="http://www.w3.org/2000/svg" width="24" height="24" viewBox="0 0 24 24">
<title>thumb-menu</title>
<path d="M12 15.984c1.078 0 2.016 0.938 2.016 2.016s-0.938 2.016-2.016 2.016-2.016-0.938-2.016-2.016 0.938-2.016 2.016-2.016zM12 9.984c1.078 0 2.016 0.938 2.016 2.016s-0.938 2.016-2.016 2.016-2.016-0.938-2.016-2.016 0.938-2.016 2.016-2.016zM12 8.016c-1.078 0-2.016-0.938-2.016-2.016s0.938-2.016 2.016-2.016 2.016 0.938 2.016 2.016-0.938 2.016-2.016 2.016z"></path>
</svg> -->



<!-- Generator: Adobe Illustrator 25.0.0, SVG Export Plug-In . SVG Version: 6.00 Build 0)  -->
<svg version="1.1" id="Ebene_1" xmlns="http://www.w3.org/2000/svg" xmlns:xlink="http://www.w3.org/1999/xlink" x="0px" y="0px"
	 height="24" width="24" viewBox="8 8 24 24" style="enable-background:new 0 0 40 40;" xml:space="preserve">
<title>thumb-menu</title>
<style type="text/css">
	.st0{fill:#FFFFFF;}
	.st1{fill-rule:evenodd;clip-rule:evenodd;fill:#FFFFFF;}
</style>
<g>
	<defs>
		<rect id="SVGID_1_" x="-1166.02" y="-1175.05" width="1680" height="1302"/>
	</defs>
	<clipPath id="SVGID_2_">
		<use xlink:href="#SVGID_1_"  style="overflow:visible;"/>
	</clipPath>
</g>
<g>
	<defs>
		<rect id="SVGID_3_" x="-1166.02" y="-1175.05" width="1680" height="1302"/>
	</defs>
	<clipPath id="SVGID_4_">
		<use xlink:href="#SVGID_3_"  style="overflow:visible;"/>
	</clipPath>
</g>
<g>
	<defs>
		<rect id="SVGID_5_" x="-1298.45" y="-684.86" width="1680" height="1302"/>
	</defs>
	<clipPath id="SVGID_6_">
		<use xlink:href="#SVGID_5_"  style="overflow:visible;"/>
	</clipPath>
</g>
<g>
	<path class="st0" d="M-69.28,21.63c0.07-0.27,0.11-0.55,0.13-0.83c0.01-0.17,0.01-0.34,0.01-0.51v-5.26c0-0.17-0.01-0.34-0.01-0.51
		c-0.01-0.28-0.05-0.56-0.13-0.83c-0.15-0.57-0.48-1.08-0.95-1.44c-0.72-0.55-1.66-0.7-2.52-0.41c-0.64,0.22-1.17,0.66-1.5,1.24
		l4.96,8.58L-69.28,21.63z"/>
	<path class="st0" d="M-71.43,27.3v-1.57c0.1-0.01,0.19-0.03,0.29-0.05c0.26-0.03,0.52-0.08,0.77-0.15l-0.47-0.81
		c-0.2,0.05-0.4,0.08-0.6,0.09c-0.09,0.01-0.4,0.01-0.5,0.01c0,0-0.04,0-0.09,0l-0.13,0c-0.09,0-0.19,0-0.25-0.01
		c-0.2-0.01-0.39-0.06-0.57-0.12c-0.02-0.01-0.04-0.02-0.06-0.02c-0.19-0.07-0.38-0.15-0.57-0.25h0c-0.19-0.09-0.36-0.2-0.53-0.33
		l0,0c-0.68-0.5-1.19-1.21-1.42-2.02c-0.1-0.45-0.17-0.91-0.19-1.37v-1.02c0-0.02,0-0.03,0-0.05c0-0.06,0-0.12,0-0.17
		c0-0.05,0-0.1-0.01-0.15c-0.03-0.11-0.1-0.2-0.19-0.27c-0.15-0.14-0.38-0.14-0.53,0c-0.09,0.07-0.15,0.16-0.18,0.27
		c-0.01,0.05-0.02,0.1-0.02,0.15l0,0.71c0-0.03,0-0.06,0-0.08l0-0.4l0-0.03l0,0.33l0.01,0.33c0.01,0.52,0.05,1.05,0.13,1.56
		c0.08,0.48,0.24,0.95,0.46,1.39c0.45,0.88,1.16,1.59,2.04,2.04c0.46,0.2,0.94,0.33,1.44,0.38c0.09,0.02,0.19,0.03,0.29,0.04v1.58
		h-2.12c-0.13-0.01-0.26,0.03-0.36,0.12c-0.1,0.09-0.15,0.21-0.16,0.35c0,0.13,0.06,0.26,0.16,0.34c0.1,0.09,0.23,0.13,0.36,0.12
		h5.19v0c0.12,0,0.24-0.04,0.33-0.13c0.01-0.01,0.02-0.02,0.03-0.04l-0.44-0.76L-71.43,27.3z"/>
	<path class="st0" d="M-67.67,23.26c0.22-0.44,0.37-0.9,0.46-1.39c0.08-0.52,0.12-1.04,0.13-1.56c0.01-0.22,0.01-0.45,0.01-0.67
		l0-0.02l0,0.02l0-0.12c0-0.02,0-0.05,0-0.07c0-0.05-0.01-0.1-0.02-0.15c-0.03-0.11-0.09-0.2-0.18-0.27c-0.15-0.14-0.38-0.14-0.53,0
		c-0.09,0.07-0.15,0.16-0.18,0.27C-68,19.34-68,19.39-68,19.45c0,0.06,0,0.12,0,0.17c0,0.02,0,0.03,0,0.05L-68,20.62v0.07
		c-0.03,0.46-0.09,0.92-0.19,1.37c-0.09,0.3-0.21,0.59-0.37,0.85l0.54,0.94C-67.89,23.66-67.77,23.46-67.67,23.26z"/>
	<path class="st0" d="M-74.5,21.63c0.24,0.87,0.9,1.57,1.75,1.85c0.41,0.14,0.84,0.18,1.26,0.11l-3.15-5.46l0,2.22
		c0,0.14,0.01,0.29,0.01,0.43C-74.61,21.08-74.57,21.36-74.5,21.63z"/>

		<rect x="-72.38" y="10.59" transform="matrix(0.8659 -0.5002 0.5002 0.8659 -19.6412 -33.2482)" class="st0" width="1.09" height="18.85"/>
</g>
<g>
	<path class="st0" d="M-28.1,21.47c0.17,0.61,0.54,1.15,1.05,1.53c1.04,0.82,2.51,0.82,3.55,0c0.51-0.38,0.88-0.92,1.05-1.53
		c0.08-0.29,0.12-0.59,0.14-0.89c0.02-0.33,0.02-0.68,0.02-1.02h0v-2.79c0-0.33,0.02-1.71,0-2.04c-0.02-0.3-0.07-0.6-0.15-0.89
		c-0.35-1.27-1.51-2.14-2.82-2.14s-2.47,0.88-2.82,2.14c-0.09,0.29-0.15,0.59-0.15,0.89c0,0.25,0,1.71,0,2.04v2.79
		c0,0.33,0,0.68,0.02,1.02C-28.22,20.88-28.18,21.18-28.1,21.47z M-27.14,14.74c0.01-0.19,0.04-0.38,0.09-0.57
		c0.11-0.39,0.34-0.74,0.66-0.98c0.66-0.51,1.57-0.51,2.23,0c0.32,0.25,0.55,0.59,0.66,0.98c0.06,0.19,0.09,0.38,0.11,0.57
		c0.02,0.25,0,2.4,0,5.35c0,0.21,0,0.28-0.02,0.49c-0.01,0.19-0.04,0.38-0.09,0.57c-0.11,0.39-0.34,0.74-0.66,0.98
		c-0.66,0.51-1.57,0.51-2.23,0c-0.32-0.25-0.55-0.59-0.66-0.98c-0.05-0.19-0.08-0.38-0.09-0.57c-0.01-0.21-0.01-0.28-0.01-0.49
		C-27.15,17.15-27.16,14.97-27.14,14.74z"/>
	<path class="st0" d="M-20.86,18.54c-0.3,0-0.55,0.25-0.55,0.55c0,0,0,0,0,0.01v1.84h-0.01c-0.16,1.96-1.77,3.49-3.74,3.56h-0.22
		c-1.97-0.07-3.58-1.6-3.74-3.56h-0.01v-0.21l0-0.06v0h0l0-1.53l0-0.05c0-0.3-0.25-0.55-0.55-0.55c-0.3,0-0.55,0.25-0.55,0.55
		c0,0.02,0,0.05,0,0.07l0,1.26c0,0.02,0,0.04,0,0.07c0,2.54,1.9,4.68,4.42,4.97v1.68h-2.08v0.01l-0.02,0c-0.3,0-0.55,0.25-0.55,0.55
		c0,0.3,0.25,0.55,0.55,0.55c0.01,0,0.01,0,0.02,0h5.26l0,0l0.02,0c0.3,0,0.55-0.25,0.55-0.55c0-0.3-0.25-0.55-0.55-0.55
		c-0.01,0-0.02,0-0.02,0l0-0.01h-2.08v-1.68c2.52-0.3,4.41-2.44,4.41-4.97h0.01v-1.37l0-0.03C-20.3,18.79-20.55,18.54-20.86,18.54z"
		/>
</g>
<g>
	<path class="st0" d="M-201.99,10.64h-21c-0.34,0-0.62,0.28-0.62,0.62v15c0,0.34,0.28,0.62,0.62,0.62h6.12v-1.25h-5.5V11.89h19.75
		v13.75h-5.53v1.25h6.16c0.34,0,0.62-0.28,0.62-0.62v-15C-201.36,10.92-201.64,10.64-201.99,10.64z"/>
	<polygon class="st0" points="-216.43,20.32 -215.54,21.21 -213.11,18.77 -213.11,29.77 -211.86,29.77 -211.86,18.77 -209.43,21.21 
		-208.54,20.32 -212.49,16.38 	"/>
</g>
<g>
	<path class="st1" d="M-173.47,14.31c-1,0-1.82,0.81-1.82,1.82v8.61c0,1,0.81,1.82,1.82,1.82h7.44l-7.14-12.24H-173.47z"/>
	<path class="st1" d="M-155.12,14.56c-0.19-0.11-0.43-0.11-0.63,0l-4.9,2.87v-1.31c0-1-0.81-1.82-1.82-1.82h-7.25l7.14,12.24h0.12
		c1,0,1.82-0.81,1.82-1.82V23.6l4.9,2.87c0.1,0.06,0.21,0.09,0.32,0.09c0.11,0,0.21-0.03,0.31-0.08c0.19-0.11,0.31-0.32,0.31-0.54
		V15.1C-154.81,14.88-154.93,14.67-155.12,14.56z"/>
	<rect x="-168.58" y="10.7" transform="matrix(0.866 -0.5 0.5 0.866 -32.5895 -81.3196)" class="st1" width="1.09" height="18.9"/>
</g>
<path class="st0" d="M-108.57,14.51c-0.19-0.11-0.43-0.11-0.63,0l-4.9,2.87v-1.31c0-1-0.81-1.81-1.82-1.81h-11
	c-1,0-1.82,0.81-1.82,1.81v8.61c0,1,0.81,1.81,1.82,1.81h11c1,0,1.82-0.81,1.82-1.81v-1.14l4.9,2.87c0.1,0.06,0.21,0.09,0.32,0.09
	c0.11,0,0.21-0.03,0.31-0.08c0.19-0.11,0.31-0.32,0.31-0.54V15.05C-108.25,14.83-108.37,14.62-108.57,14.51z M-115.34,24.68
	c0,0.31-0.25,0.56-0.57,0.56h-11c-0.31,0-0.57-0.25-0.57-0.56v-8.61c0-0.31,0.25-0.56,0.57-0.56h11c0.31,0,0.57,0.25,0.57,0.56
	V24.68z M-109.5,24.78l-4.59-2.68v-3.27l4.59-2.69V24.78z"/>
<g>
	<path class="st0" d="M12.86,18.62c-0.88,0-1.6,0.72-1.6,1.6c0,0.88,0.72,1.6,1.6,1.6c0.88,0,1.6-0.72,1.6-1.6
		C14.46,19.34,13.74,18.62,12.86,18.62z M12.86,20.82c-0.33,0-0.6-0.27-0.6-0.6s0.27-0.6,0.6-0.6s0.6,0.27,0.6,0.6
		S13.19,20.82,12.86,20.82z"/>
	<path class="st0" d="M19.86,18.62c-0.88,0-1.6,0.72-1.6,1.6c0,0.88,0.72,1.6,1.6,1.6c0.88,0,1.6-0.72,1.6-1.6
		C21.46,19.34,20.74,18.62,19.86,18.62z M19.86,20.82c-0.33,0-0.6-0.27-0.6-0.6s0.27-0.6,0.6-0.6s0.6,0.27,0.6,0.6
		S20.19,20.82,19.86,20.82z"/>
	<path class="st0" d="M26.86,18.62c-0.88,0-1.6,0.72-1.6,1.6c0,0.88,0.72,1.6,1.6,1.6c0.88,0,1.6-0.72,1.6-1.6
		C28.46,19.34,27.74,18.62,26.86,18.62z M26.86,20.82c-0.33,0-0.6-0.27-0.6-0.6s0.27-0.6,0.6-0.6s0.6,0.27,0.6,0.6
		S27.19,20.82,26.86,20.82z"/>
</g>
</svg>